<svg xmlns="http://www.w3.org/2000/svg" viewBox="0 0 400 600" fill="none">
  <!-- Minimalist line-art map of the Philippine archipelago -->
  <g stroke="oklch(0.28 0.025 250)" stroke-width="4" stroke-linejoin="round" stroke-linecap="round" fill="none">

    <!-- Luzon (north) -->
    <path d="M176,20
      C160,18 148,30 152,44
      C156,56 170,58 168,70
      C166,84 178,92 190,104
      C202,116 210,128 204,140
      C198,150 184,146 176,138
      C168,150 172,164 164,172
      C156,180 146,172 142,160
      C134,168 122,166 116,156
      C108,168 92,168 86,154
      C80,140 88,124 100,116
      C94,104 98,88 110,80
      C104,68 108,52 122,44
      C118,32 128,20 144,18
      C154,10 168,14 176,20 Z" />

    <!-- Bicol peninsula tail off Luzon -->
    <path d="M164,172
      C178,180 196,190 212,204
      C224,214 230,222 224,228
      C216,234 204,224 194,214
      C186,206 178,196 172,186 Z" />

    <!-- Mindoro -->
    <path d="M96,190
      C88,196 82,208 84,220
      C86,230 96,232 102,222
      C108,212 106,198 100,190 Z" />

    <!-- Palawan (long diagonal island, southwest) -->
    <path d="M92,196
      C78,220 58,258 42,296
      C30,324 22,350 30,346
      C42,340 58,306 74,270
      C86,244 96,218 100,200 Z" />

    <!-- Panay -->
    <path d="M118,272
      C104,276 92,290 94,304
      C96,316 110,320 120,310
      C130,300 128,282 118,272 Z" />

    <!-- Negros -->
    <path d="M148,300
      C136,304 128,320 132,336
      C136,350 150,352 158,340
      C164,328 160,308 148,300 Z" />

    <!-- Cebu (thin elongated island) -->
    <path d="M172,290
      C168,300 166,320 170,338
      C172,348 180,346 180,334
      C182,316 180,298 176,288 Z" />

    <!-- Bohol -->
    <path d="M188,326
      C180,332 178,342 186,348
      C194,354 204,348 204,338
      C204,330 196,322 188,326 Z" />

    <!-- Leyte -->
    <path d="M204,282
      C196,290 192,306 198,320
      C204,332 218,332 222,318
      C226,304 216,288 204,282 Z" />

    <!-- Samar -->
    <path d="M222,258
      C214,262 208,276 212,290
      C216,302 230,304 236,292
      C242,278 234,264 222,258 Z" />

    <!-- Mindanao (south) -->
    <path d="M172,368
      C156,382 144,404 148,428
      C152,452 172,472 198,478
      C222,484 248,478 264,462
      C280,446 286,422 278,400
      C270,380 252,368 232,364
      C210,360 188,358 172,368 Z" />

  </g>
</svg>
